<svg width="24" height="24" viewBox="0 0 24 24" fill="none" xmlns="http://www.w3.org/2000/svg">
  <circle cx="12" cy="12" r="10" stroke="#F1F1EF" stroke-width="2" />
  <path
    d="M15.7255 9.39261C16.0347 9.08338 16.0347 8.58119 15.7255 8.27196C15.4163 7.96273 14.9141 7.96273 14.6049 8.27196L11.9999 10.8794L9.39249 8.27444C9.08326 7.96521 8.58107 7.96521 8.27184 8.27444C7.96261 8.58367 7.96261 9.08585 8.27184 9.39508L10.8793 12L8.27431 14.6075C7.96508 14.9167 7.96508 15.4189 8.27431 15.7281C8.58354 16.0373 9.08573 16.0373 9.39496 15.7281L11.9999 13.1207L14.6073 15.7256C14.9166 16.0349 15.4188 16.0349 15.728 15.7256C16.0372 15.4164 16.0372 14.9142 15.728 14.605L13.1206 12L15.7255 9.39261Z"
    fill="#F1F1EF" stroke="#F1F1EF" stroke-width="0.5" />
</svg>
  