<svg style="display:none">
  <symbol id="close-svg" width="40" height="40" viewBox="0 0 40 40" fill="none"
    xmlns="http://www.w3.org/2000/svg">
    <circle cx="19.6499" cy="19.65" r="15.15" stroke="currentColor" stroke-width="3" />
    <path
      d="M24.7764 16.0624C25.2019 15.6368 25.2019 14.9458 24.7764 14.5203C24.3509 14.0948 23.6599 14.0948 23.2344 14.5203L19.6498 18.1082L16.0619 14.5237C15.6364 14.0982 14.9454 14.0982 14.5199 14.5237C14.0944 14.9492 14.0944 15.6402 14.5199 16.0658L18.1078 19.6503L14.5233 23.2382C14.0978 23.6637 14.0978 24.3547 14.5233 24.7802C14.9488 25.2057 15.6398 25.2057 16.0653 24.7802L19.6498 21.1923L23.2378 24.7768C23.6633 25.2023 24.3543 25.2023 24.7798 24.7768C25.2053 24.3513 25.2053 23.6603 24.7798 23.2348L21.1919 19.6503L24.7764 16.0624Z"
      fill="currentColor" stroke="currentColor" />
  </symbol>

  <symbol
    id="plus-svg"
    width="60"
    height="60"
    viewBox="0 0 60 60"
    fill="none"
    xmlns="http://www.w3.org/2000/svg">
    <circle
      cx="30"
      cy="30"
      r="23"
      stroke="currentColor"
      stroke-width="4"
    />
    <path
      d="M39 30.3846C39 31.1505 38.3813 31.7692 37.6154 31.7692H22.3846C21.6187 31.7692 21 31.1505 21 30.3846C21 29.6187 21.6187 29 22.3846 29H37.6154C38.3813 29 39 29.6187 39 30.3846Z"
      fill="currentColor"
      stroke="currentColor"
    />
  </symbol>

  <symbol
    id="minus-svg"
    width="60"
    height="60"
    viewBox="0 0 60 60"
    fill="none"
    xmlns="http://www.w3.org/2000/svg">
    <circle
      cx="30"
      cy="30"
      r="23"
      stroke="currentColor"
      stroke-width="4"
    />
    <path
      d="M31.3846 22.3846C31.3846 21.6187 30.7659 21 30 21C29.2341 21 28.6154 21.6187 28.6154 22.3846V28.6154H22.3846C21.6187 28.6154 21 29.2341 21 30C21 30.7659 21.6187 31.3846 22.3846 31.3846H28.6154V37.6154C28.6154 38.3813 29.2341 39 30 39C30.7659 39 31.3846 38.3813 31.3846 37.6154V31.3846H37.6154C38.3813 31.3846 39 30.7659 39 30C39 29.2341 38.3813 28.6154 37.6154 28.6154H31.3846V22.3846Z"
      fill="currentColor"
      stroke="currentColor"
    />
  </symbol>


  <symbol
    id="round-svg"
    width="14" height="14" viewBox="0 0 14 14" fill="none" xmlns="http://www.w3.org/2000/svg">
    <circle cx="7" cy="7" r="7" fill="#F1F1EF" />
  </symbol>


</svg>


  